# xmcd
#
# Track frame offsets: 
#        150
#        23511
#        35979
#        52141
#        77303
#        92266
#        107574
#        120624
#        135736
#        151785
#
# Disc length: 2169 seconds
#
# Revision: 0
# Processed by: cddbd v1.5.2PL0 Copyright (c) Steve Scherf et al.
# Submitted via: ExactAudioCopy v1.0b3
#
DISCID=6f08770a
DTITLE=Red Foot - The Road
DYEAR=2013
DGENRE=Rock
TTITLE0=Keep Going Away
TTITLE1=Where is My Rock'n Roll
TTITLE2=Heartbreaker
TTITLE3=Song for You
TTITLE4=Red Foot Stomp
TTITLE5=I Gotta Keep on Running
TTITLE6=Rockin Boy
TTITLE7=I Just Can't Be Your Man
TTITLE8=The Road
TTITLE9=Mark foi ao Bar
EXTD=
EXTT0=
EXTT1=
EXTT2=
EXTT3=
EXTT4=
EXTT5=
EXTT6=
EXTT7=
EXTT8=
EXTT9=
PLAYORDER=
